<svg id="Layer_1" enable-background="new 0 0 512 512" height="512" viewBox="0 0 512 512" width="512" xmlns="http://www.w3.org/2000/svg"><path d="m324.505 9.472c-43.236 49.641-1.112 78.672-1.112 78.672h11.009v-74.999c.001-5.226-6.466-7.613-9.897-3.673z" fill="#d8cecc"/><path d="m419.035 9.472c-3.431-3.939-9.898-1.553-9.898 3.674v74.999h11.009c.001-.001 42.126-29.032-1.111-78.673z" fill="#d8cecc"/><path d="m421.2 98.338v264.285c0 27.409-14.46 56.009-40.929 59.389v72.488c0 5.52-4.48 10-10 10h-13.97c-5.52 0-10-4.48-10-10v-72.039h-169.617v72.039c0 5.52-4.48 10-10 10h-13.96c-5.52 0-10-4.48-10-10v-185.826h133.057c7.79 0 15.12-1.91 21.57-5.3 14.84-7.78 24.959-23.34 24.959-41.269v-162.947c0-27.119 21.5-49.799 48.609-50.249 27.701-.46 50.281 21.84 50.281 49.429z" fill="#ebe0da"/><path d="m389.34 52.119c-18.789 7.22-32.029 25.759-32.029 47.039v162.947c0 17.93-10.12 33.489-24.959 41.269-6.45 3.39-13.78 5.3-21.57 5.3h-34.999c7.79 0 15.12-1.91 21.57-5.3 14.84-7.78 24.959-23.34 24.959-41.269v-162.947c0-27.119 21.5-49.799 48.609-50.249 6.499-.11 12.709 1.04 18.419 3.21z" fill="#d8cecc"/><path d="m107.956 308.672c-12.187 0-23.472 6.43-29.694 16.919-6.141 10.352-6.366 29.639-1.088 40.229 1.669 3.349 6.353 3.604 8.29.403 4.789-7.914 15.096-20.8 34.072-27.535 7.437-2.64 50.734-3.84 58.625-3.84v-26.175h-70.205z" fill="#ebe0da"/><path d="m377.414 138.177 6.317-10.952c2.505-4.343-.629-9.77-5.643-9.77h-12.635c-5.014 0-8.149 5.427-5.643 9.77l6.317 10.952c2.507 4.347 8.78 4.347 11.287 0z" fill="#766d78"/><path d="m297.352 303.374v49.309c0 19.23-15.59 34.819-34.819 34.819h-51.029c-19.23 0-34.819-15.59-34.819-34.819v-44.009h99.098c7.789 0 15.119-1.91 21.569-5.3z" fill="#24d3b5"/><path d="m380.27 466.001v28.499c0 5.52-4.48 10-10 10h-13.97c-5.52 0-10-4.48-10-10v-28.499z" fill="#a49ca7"/><path d="m246.503 387.502h-34.999c-19.23 0-34.819-15.59-34.819-34.819v-44.009h34.999v44.009c0 19.23 15.59 34.819 34.819 34.819z" fill="#20b7a1"/><path d="m176.694 308.674v113.788h-.01v72.038c0 5.52-4.48 10-10 10h-13.96c-5.52 0-10-4.48-10-10v-185.826z" fill="#d8cecc"/><path d="m142.725 466.001h33.959v28.499c0 5.52-4.48 10-10 10h-13.96c-5.52 0-10-4.48-10-10v-28.499z" fill="#a49ca7"/><path d="m424.691 4.545c-7.983-9.167-23.053-3.54-23.053 8.6v36.749c-18.024-11.157-41.155-11.554-59.734.164v-36.913c0-12.148-15.076-17.761-23.053-8.599-16.113 18.5-23.167 36.73-20.966 54.185 2.075 16.462 11.943 27.502 17.482 32.516-.784 5.706-.554-6.888-.554 170.858 0 21.674-17.533 39.069-39.029 39.069-15.32 0-160.66-.002-167.826-.002-14.759 0-28.61 7.89-36.145 20.592-7.229 12.187-7.86 34.337-1.351 47.401 4.304 8.634 16.425 9.195 21.418.94 3.929-6.49 13.07-18.283 30.164-24.351 4.159-1.476 8.574-2.468 13.182-2.985v151.731c0 9.649 7.85 17.5 17.5 17.5h13.96c9.649 0 17.5-7.85 17.5-17.5v-64.539h154.617v64.539c0 9.649 7.85 17.5 17.5 17.5h13.969c9.649 0 17.5-7.85 17.5-17.5v-66.357c26.901-7.399 40.929-37.515 40.929-65.521v-155.268c0-4.142-3.357-7.5-7.5-7.5s-7.5 3.358-7.5 7.5v155.269c0 23.634-11.809 49.067-34.379 51.949-3.744.478-6.55 3.664-6.55 7.439v36.49h-18.969v-36.039c0-4.142-3.357-7.5-7.5-7.5h-169.618c-4.142 0-7.5 3.358-7.5 7.5v36.039h-18.96v-123.441c.002-.071.011-.141.011-.213s-.009-.141-.011-.213v-18.46h18.96v15.282c0 4.142 3.357 7.5 7.5 7.5s7.5-3.358 7.5-7.5v-15.282c99.433 0 96.37.639 105.668-1.864v38.373c0 15.064-12.256 27.319-27.32 27.319h-51.028c-12.485 0-23.368-8.432-26.465-20.504-1.028-4.011-5.111-6.432-9.129-5.401-4.012 1.029-6.43 5.116-5.4 9.128 4.8 18.71 21.658 31.777 40.994 31.777h51.028c23.335 0 42.319-18.984 42.319-42.319v-45.004c15.502-9.889 24.959-26.952 24.959-45.574v-153.097h14.92c4.142 0 7.5-3.358 7.5-7.5s-3.357-7.5-7.5-7.5h-14.6c2.521-21.021 20.233-37.61 41.63-37.61 21.664 0 39.542 16.511 41.715 37.61h-14.686c-4.142 0-7.5 3.358-7.5 7.5s3.357 7.5 7.5 7.5h14.91v68.346c0 4.142 3.357 7.5 7.5 7.5 4.142 0 7.5-3.358 7.5-7.5 0-86.858.191-80.957-.464-86.161 22.083-20.051 26.578-52.061-3.545-86.648zm-289.465 323.151c-6.349.577-12.448 1.881-18.2 3.923-17.836 6.33-28.812 17.671-34.866 26.033-2.267-8.979-1.334-21.683 2.553-28.234 4.848-8.17 13.754-13.246 23.245-13.246h27.269v11.524zm218.575 145.805h18.969v21c0 1.378-1.121 2.5-2.5 2.5h-13.969c-1.379 0-2.5-1.122-2.5-2.5zm-184.616 0v21c0 1.378-1.121 2.5-2.5 2.5h-13.96c-1.379 0-2.5-1.122-2.5-2.5v-21zm151.117-398.958c-13.912-18.096-7.729-38.211 6.601-56.236 0 47.522-.031 44.622.056 45.37-2.59 3.352-4.836 6.988-6.657 10.866zm103.082-.189c-1.84-3.944-4.119-7.64-6.773-11.032.041-.591.027-44.423.027-45.016 14.29 17.978 20.461 38.009 6.746 56.048z"/><path d="m358.327 152.211c0-4.142-3.357-7.5-7.5-7.5s-7.5 3.358-7.5 7.5c0 15.694 12.759 28.462 28.443 28.462s28.443-12.768 28.443-28.462c0-4.142-3.357-7.5-7.5-7.5-4.142 0-7.5 3.358-7.5 7.5 0 4.644-2.361 8.746-5.943 11.167v-16.599c1.875-1.189 3.472-2.831 4.64-4.854l6.319-10.953c5.389-9.345-1.348-21.017-12.14-21.017h-12.635c-10.79 0-17.53 11.669-12.14 21.017 6.693 11.603 7.303 13.491 10.958 15.807v16.599c-3.585-2.421-5.945-6.523-5.945-11.167zm18.056-27.257-4.613 7.996-4.612-7.996z"/></svg>